<svg version="1.0" xmlns="http://www.w3.org/2000/svg"
  width="190" height="50" viewBox="0 0 986.000000 253.000000"
 preserveAspectRatio="xMidYMid meet">

<g transform="translate(0.000000,253.000000) scale(0.100000,-0.100000)"
fill="#fff" stroke="none">
<path d="M8146 2130 c-120 -22 -258 -119 -326 -229 l-32 -51 -83 0 c-90 0 -95
3 -95 61 0 47 -28 102 -63 127 -31 21 -43 22 -210 22 -149 0 -179 -2 -183 -15
-4 -8 -1 -22 6 -30 10 -12 43 -15 175 -15 142 0 166 -2 185 -18 23 -19 29 -56
79 -537 6 -55 18 -162 26 -239 9 -76 14 -140 13 -141 -2 -1 -48 -27 -102 -56
-120 -66 -139 -89 -133 -172 3 -47 9 -63 32 -87 17 -18 48 -35 72 -41 l42 -11
-21 -39 c-68 -131 5 -276 152 -303 80 -14 190 50 219 127 23 61 10 154 -27
200 -14 16 -1 17 251 17 147 0 267 -2 267 -4 0 -3 -10 -22 -22 -43 -48 -81
-16 -212 64 -261 81 -50 162 -48 240 5 74 50 101 173 58 258 -11 22 -20 40
-20 42 0 1 30 3 66 5 50 2 70 7 78 20 7 13 7 21 0 28 -8 8 -206 11 -661 11
-671 -1 -702 1 -723 39 -16 30 -12 85 8 103 10 9 60 39 110 67 l93 50 471 0
c537 0 514 -3 565 83 63 106 283 506 293 533 16 42 5 85 -37 138 -52 67 -75
76 -187 76 l-96 0 -21 41 c-46 92 -154 181 -263 219 -68 23 -190 33 -260 20z
m-2 -87 c-10 -16 -29 -48 -42 -71 -23 -41 -27 -43 -56 -37 -17 3 -46 9 -63 12
-18 3 -33 9 -33 14 0 13 89 70 139 90 67 26 77 25 55 -8z m275 -4 c49 -21 111
-65 111 -78 0 -8 -118 -37 -123 -30 -11 15 -77 131 -77 135 0 7 35 -4 89 -27z
m-122 -45 c23 -32 42 -62 43 -66 0 -5 -45 -8 -100 -8 l-101 0 12 23 c25 47 82
118 93 114 6 -2 30 -30 53 -63z m-313 -110 c33 -9 62 -17 64 -19 1 -1 -4 -29
-12 -61 -9 -33 -18 -76 -21 -96 l-6 -38 -99 0 c-114 0 -111 -3 -84 91 20 70
60 139 80 139 9 0 44 -7 78 -16z m647 -49 c18 -36 34 -88 37 -116 l5 -50 -98
3 -98 3 -17 87 c-10 48 -21 91 -24 97 -4 5 21 16 56 24 104 25 103 25 139 -48z
m-240 -45 c10 -36 18 -77 18 -93 l1 -27 -167 2 -168 3 2 40 c2 22 10 63 18 92
l15 53 132 -3 132 -2 17 -65z m-638 -98 c-7 -115 5 -180 49 -270 92 -186 314
-299 520 -264 277 48 453 305 404 590 l-8 42 80 0 80 0 37 -42 c19 -23 38 -52
41 -64 4 -15 -39 -101 -146 -295 -83 -151 -160 -282 -172 -291 -19 -17 -57
-18 -478 -18 l-458 0 -6 38 c-3 20 -10 84 -16 142 -6 58 -22 197 -34 310 -12
113 -21 208 -19 213 2 4 33 7 68 7 l64 0 -6 -98z m268 -157 c8 -45 18 -88 22
-97 7 -19 3 -21 -85 -38 -32 -6 -62 -8 -68 -5 -28 17 -87 182 -76 211 5 12 24
14 98 12 l93 -3 16 -80z m387 62 c2 -10 -4 -52 -13 -93 l-16 -75 -137 3 -137
3 -19 77 c-10 42 -16 84 -12 93 5 13 28 15 168 13 148 -3 163 -5 166 -21z
m256 -28 c0 -32 -11 -68 -33 -114 l-33 -67 -42 6 c-22 4 -58 11 -79 17 -34 9
-38 13 -32 32 3 12 11 51 17 87 6 36 12 71 14 78 3 9 27 12 96 10 l93 -3 -1
-46z m-324 -211 c0 -17 -87 -128 -100 -128 -11 0 -100 117 -100 131 0 5 45 9
100 9 73 0 100 -3 100 -12z m-226 -68 c25 -38 42 -70 36 -70 -35 0 -200 90
-200 110 0 7 66 25 106 29 6 0 32 -30 58 -69z m375 57 l54 -13 -34 -29 c-32
-27 -107 -65 -156 -80 -23 -6 -32 8 -13 20 6 4 25 31 41 61 34 59 31 58 108
41z m-702 -667 c41 -25 63 -68 63 -122 0 -60 -30 -105 -86 -130 -58 -25 -102
-18 -149 23 -71 62 -70 159 3 218 30 26 46 31 87 31 32 0 62 -7 82 -20z m833
5 c78 -40 99 -143 43 -212 -78 -98 -217 -67 -254 56 -10 33 -8 45 9 84 13 29
33 54 54 67 39 24 107 26 148 5z"/>
<path d="M1190 1759 c-177 -29 -323 -166 -359 -337 -54 -257 83 -485 325 -543
79 -19 238 -14 314 10 164 51 250 168 267 359 l6 72 -157 0 -156 0 0 -45 0
-45 95 0 c109 0 106 3 79 -91 -21 -70 -89 -139 -165 -165 -84 -30 -218 -26
-290 7 -104 49 -168 137 -190 264 -22 130 6 246 82 329 71 78 128 101 254 101
83 0 108 -4 150 -23 54 -25 115 -78 146 -129 18 -29 26 -33 65 -33 l44 0 0
130 0 130 -50 0 -50 0 0 -50 c0 -27 -2 -50 -5 -50 -3 0 -18 12 -33 26 -78 75
-223 107 -372 83z"/>
<path d="M1860 1730 l0 -40 55 0 55 0 -2 -367 -3 -367 -52 3 -53 2 0 -40 0
-41 161 0 160 0 -3 38 c-3 37 -3 37 -50 40 l-48 3 0 405 0 404 -110 0 -110 0
0 -40z"/>
<path d="M3010 1730 l0 -40 55 0 55 0 -2 -367 -3 -367 -52 3 -53 2 0 -40 0
-41 110 0 c103 0 110 1 110 20 0 11 2 20 4 20 2 0 30 -12 62 -27 47 -21 72
-26 132 -26 64 1 83 5 140 34 117 60 167 152 167 304 -1 68 -5 90 -28 138 -55
110 -151 163 -285 155 -57 -3 -91 -11 -130 -31 -30 -15 -56 -27 -58 -27 -2 0
-4 74 -4 165 l0 165 -110 0 -110 0 0 -40z m485 -329 c51 -23 101 -79 114 -128
14 -50 14 -142 0 -184 -44 -129 -188 -181 -321 -116 l-58 28 0 177 c0 173 1
178 23 191 79 51 174 63 242 32z"/>
<path d="M4572 1713 l3 -38 55 0 55 -1 0 -359 0 -359 -57 3 -58 2 0 -41 0 -41
288 3 c322 4 346 9 414 75 52 51 71 106 66 187 -5 86 -41 139 -118 178 -30 15
-50 28 -43 28 19 0 82 60 100 94 23 44 22 141 -2 190 -23 47 -88 91 -156 105
-28 6 -161 11 -300 11 l-250 0 3 -37z m525 -59 c55 -20 77 -55 77 -124 1 -41
-5 -63 -22 -87 -35 -49 -84 -63 -222 -63 l-120 0 0 144 c0 130 2 145 18 148
43 8 231 -4 269 -18z m-17 -365 c58 -12 111 -53 130 -99 17 -40 8 -125 -17
-158 -46 -62 -61 -67 -229 -70 l-154 -3 0 170 0 171 110 0 c60 0 132 -5 160
-11z"/>
<path d="M2480 1491 c-89 -29 -156 -88 -194 -170 -30 -67 -29 -206 2 -277 29
-63 92 -126 157 -156 41 -18 68 -23 145 -23 84 0 102 3 152 28 124 61 185 170
176 316 -7 120 -61 206 -163 259 -43 22 -65 26 -150 29 -55 1 -111 -1 -125 -6z
m214 -96 c133 -64 152 -298 34 -400 -78 -66 -198 -66 -276 0 -52 45 -75 102
-75 191 -1 112 47 189 138 222 42 16 133 9 179 -13z"/>
<path d="M4011 1478 c-61 -23 -127 -84 -155 -142 -10 -21 -23 -68 -29 -103
-14 -79 6 -170 52 -237 61 -88 196 -144 319 -133 73 7 169 47 206 86 26 27 27
28 10 58 l-18 30 -59 -38 c-145 -94 -307 -67 -371 62 -14 29 -26 63 -26 76 l0
23 250 0 250 0 0 55 c0 119 -75 234 -175 268 -69 24 -186 21 -254 -5z m184
-59 c22 -6 52 -20 68 -31 34 -24 67 -87 67 -128 l0 -30 -196 0 -197 0 6 36
c14 85 101 157 197 163 8 0 33 -4 55 -10z"/>
<path d="M5430 1450 l0 -40 50 0 50 0 0 -187 c0 -203 7 -246 47 -293 39 -47
79 -63 153 -62 72 0 130 18 187 56 40 27 53 22 53 -21 0 -22 3 -23 111 -23
l110 0 -3 38 -3 37 -57 3 -58 3 0 264 0 265 -110 0 -110 0 0 -40 0 -40 55 0
55 0 0 -190 0 -190 -47 -30 c-119 -76 -237 -63 -262 27 -6 21 -11 132 -11 251
l0 212 -105 0 -105 0 0 -40z"/>
<path d="M6220 1450 l0 -40 58 0 57 0 114 -245 c102 -219 116 -245 137 -245
29 0 29 -5 4 -72 -43 -113 -62 -128 -160 -128 l-60 0 0 -45 0 -45 63 0 c82 0
130 14 166 50 31 31 31 31 201 453 l112 277 49 0 49 0 0 40 0 40 -155 0 -155
0 0 -40 0 -40 51 0 c44 0 50 -2 45 -17 -58 -162 -153 -392 -161 -389 -8 2
-185 389 -185 403 0 2 20 3 45 3 l45 0 0 40 0 40 -160 0 -160 0 0 -40z"/>
</g>
</svg>
