<svg xmlns="http://www.w3.org/2000/svg" version="1.1" xmlns:xlink="http://www.w3.org/1999/xlink" xmlns:svgjs="http://svgjs.dev/svgjs" width="190" height="50" viewBox="0 0 2000 515"><g transform="matrix(1,0,0,1,-1.2121212121212466,0.5634671113690501)"><svg viewBox="0 0 396 102" data-background-color="#ffffff" preserveAspectRatio="xMidYMid meet" height="515" width="2000" xmlns="http://www.w3.org/2000/svg" xmlns:xlink="http://www.w3.org/1999/xlink"><g id="tight-bounds" transform="matrix(1,0,0,1,0.2400000000000091,-0.11159931137794388)"><svg viewBox="0 0 395.52 102.22298646191943" height="102.22298646191943" width="395.52"><g><svg viewBox="0 0 572.9791920927171 148.08769264829934" height="102.22298646191943" width="395.52"><g transform="matrix(1,0,0,1,177.45919209271705,42.93998629134485)"><svg viewBox="0 0 395.52 62.20772006560963" height="62.20772006560963" width="395.52"><g id="textblocktransform"><svg viewBox="0 0 395.52 62.20772006560963" height="62.20772006560963" width="395.52" id="textblock"><g><svg viewBox="0 0 395.52 62.20772006560963" height="62.20772006560963" width="395.52"><g transform="matrix(1,0,0,1,0,0)"><svg width="395.52" viewBox="5.35 -42.3 274.33 43.15" height="62.20772006560963" data-palette-color="#ee4d2d"><g class="undefined-text-0" data-fill-palette-color="primary" id="text-0"><path d="M18.6-37.9Q31-37.9 31-26.6L31-26.6Q31-21.1 27.9-18.23 24.8-15.35 18.6-15.35L18.6-15.35 10.2-15.35 10.2 0 5.35 0 5.35-37.9 18.6-37.9ZM26.05-26.6Q26.05-30.3 24.2-31.98 22.35-33.65 18.6-33.65L18.6-33.65 10.2-33.65 10.2-19.65 18.6-19.65Q26-19.65 26.05-26.6L26.05-26.6ZM40.7-13.45Q40.8-8.85 43-6.1 45.2-3.35 50-3.35L50-3.35Q53.65-3.35 58-5.4L58-5.4 59.45-1.5Q54.9 0.85 49.6 0.85L49.6 0.85Q45.2 0.85 42.1-1 39-2.85 37.4-6.15 35.8-9.45 35.8-13.85L35.8-13.85Q35.8-18.5 37.47-21.78 39.15-25.05 42-26.75 44.85-28.45 48.4-28.45L48.4-28.45Q53.85-28.45 56.95-25.05 60.05-21.65 60.05-15.3L60.05-15.3 60.05-13.45 40.7-13.45ZM48.4-24.25Q42.2-24.25 41-17.4L41-17.4 55.1-17.4Q54.85-20.9 53.2-22.58 51.55-24.25 48.4-24.25L48.4-24.25ZM69.95-13.45Q70.05-8.85 72.25-6.1 74.45-3.35 79.25-3.35L79.25-3.35Q82.9-3.35 87.25-5.4L87.25-5.4 88.7-1.5Q84.15 0.85 78.84 0.85L78.84 0.85Q74.45 0.85 71.34-1 68.25-2.85 66.65-6.15 65.05-9.45 65.05-13.85L65.05-13.85Q65.05-18.5 66.72-21.78 68.4-25.05 71.25-26.75 74.09-28.45 77.65-28.45L77.65-28.45Q83.09-28.45 86.2-25.05 89.3-21.65 89.3-15.3L89.3-15.3 89.3-13.45 69.95-13.45ZM77.65-24.25Q71.45-24.25 70.25-17.4L70.25-17.4 84.34-17.4Q84.09-20.9 82.45-22.58 80.8-24.25 77.65-24.25L77.65-24.25ZM109.04-28.25L110.19-28.25 110.19-23.85 109.04-23.85Q104.74-23.85 100.69-20.4L100.69-20.4 100.69 0 95.99 0 95.99-27.65 100.69-27.65 100.69-24.55Q104.79-28.25 109.04-28.25L109.04-28.25ZM147.04-37.9L152.39-37.9 152.39 0 147.54 0 147.54-30.55 135.94-14.4 133.39-14.4 121.89-30.55 121.89 0 117.04 0 117.04-37.9 122.34-37.9 134.69-20.6 147.04-37.9ZM170.74-27.65Q175.14-27.65 177.44-26.18 179.74-24.7 180.49-22.23 181.24-19.75 181.24-16L181.24-16 181.24 0 176.54 0 176.54-2.75Q174.64-0.95 172.74-0.15 170.84 0.65 168.64 0.65L168.64 0.65Q166.04 0.65 163.94-0.48 161.84-1.6 160.61-3.73 159.39-5.85 159.39-8.75L159.39-8.75Q159.39-13.25 162.19-15.73 164.99-18.2 169.74-18.2L169.74-18.2Q173.49-18.2 176.49-16.55L176.49-16.55Q176.44-19 175.99-20.45 175.54-21.9 174.14-22.68 172.74-23.45 169.99-23.45L169.99-23.45 166.29-23.45 166.29-27.65 170.74-27.65ZM169.29-3.4Q170.99-3.4 172.86-4.2 174.74-5 176.54-6.6L176.54-6.6 176.54-12.9Q173.74-14.3 170.44-14.3L170.44-14.3Q167.79-14.3 165.99-13.03 164.19-11.75 164.19-8.75L164.19-8.75Q164.19-5.95 165.71-4.67 167.24-3.4 169.29-3.4L169.29-3.4ZM202.04-28.25L203.19-28.25 203.19-23.85 202.04-23.85Q197.74-23.85 193.69-20.4L193.69-20.4 193.69 0 188.99 0 188.99-27.65 193.69-27.65 193.69-24.55Q197.79-28.25 202.04-28.25L202.04-28.25ZM226.98 0L216.88-12.75 213.88-9.7 213.88 0 209.18 0 209.18-42.3 213.88-42.3 213.88-15.65 225.18-27.3 231.08-27.3 220.08-16 232.68 0 226.98 0ZM241.58-13.45Q241.68-8.85 243.88-6.1 246.08-3.35 250.88-3.35L250.88-3.35Q254.53-3.35 258.88-5.4L258.88-5.4 260.33-1.5Q255.78 0.85 250.48 0.85L250.48 0.85Q246.08 0.85 242.98-1 239.88-2.85 238.28-6.15 236.68-9.45 236.68-13.85L236.68-13.85Q236.68-18.5 238.35-21.78 240.03-25.05 242.88-26.75 245.73-28.45 249.28-28.45L249.28-28.45Q254.73-28.45 257.83-25.05 260.93-21.65 260.93-15.3L260.93-15.3 260.93-13.45 241.58-13.45ZM249.28-24.25Q243.08-24.25 241.88-17.4L241.88-17.4 255.98-17.4Q255.73-20.9 254.08-22.58 252.43-24.25 249.28-24.25L249.28-24.25ZM279.68-22.95L273.28-22.95 273.28-7.15Q273.28-5.15 273.9-4.42 274.53-3.7 276.23-3.7L276.23-3.7Q277.73-3.7 279.43-4.1L279.43-4.1 279.43 0.15Q277.18 0.65 275.43 0.65L275.43 0.65Q271.63 0.65 270.1-0.9 268.58-2.45 268.58-6.1L268.58-6.1 268.58-22.95 264.98-22.95 264.98-27.3 268.58-27.3 268.58-36.8 273.28-36.8 273.28-27.3 279.68-27.3 279.68-22.95Z" fill="#ee4d2d" data-fill-palette-color="primary"></path></g></svg></g></svg></g></svg></g></svg></g><g><svg viewBox="0 0 148.08769264829934 148.08769264829934" height="148.08769264829934" width="148.08769264829934"><g><svg></svg></g><g id="icon-0"><svg viewBox="0 0 148.08769264829934 148.08769264829934" height="148.08769264829934" width="148.08769264829934"><g><path d="M0 74.044c0-40.893 33.151-74.044 74.044-74.044 40.893 0 74.044 33.151 74.044 74.044 0 40.893-33.151 74.044-74.044 74.044-40.893 0-74.044-33.151-74.044-74.044zM74.044 142.478c37.795 0 68.434-30.639 68.434-68.434 0-37.795-30.639-68.434-68.434-68.434-37.795 0-68.434 30.639-68.434 68.434 0 37.795 30.639 68.434 68.434 68.434z" data-fill-palette-color="accent" fill="#ee4d2d" stroke="transparent"></path></g><g transform="matrix(1,0,0,1,34.312056821222995,34.29573230101739)"><svg viewBox="0 0 79.46357900585335 79.49622804626456" height="79.49622804626456" width="79.46357900585335"><g><svg xmlns="http://www.w3.org/2000/svg" data-name="Layer 1" viewBox="1.9914483139484447 1.9792198461133779 60.008551686051554 60.03320727863281" x="0" y="0" height="79.49622804626456" width="79.46357900585335" class="icon-g$-0" data-fill-palette-color="accent" id="g$-0"><path class="cls-1" d="M61 31H31a1 1 0 0 0-1 1V61a1 1 0 0 0 1 1H61a1 1 0 0 0 1-1V32A1 1 0 0 0 61 31Zm-1 5.5a1.5 1.5 0 0 1-3 0V33h3Zm-5 0a1.5 1.5 0 0 1-3 0V33h3Zm-5 0a1.5 1.5 0 0 1-3 0V33h3Zm-5 0a1.5 1.5 0 0 1-3 0V33h3Zm-5 0a1.5 1.5 0 0 1-3 0V33h3ZM32 33h3v3.5a1.5 1.5 0 0 1-3 0Zm4 27V50h6V60Zm8 0V49a1 1 0 0 0-1-1H35a1 1 0 0 0-1 1V60H32V39.649a3.446 3.446 0 0 0 4-0.707 3.483 3.483 0 0 0 5 0 3.483 3.483 0 0 0 5 0 3.483 3.483 0 0 0 5 0 3.483 3.483 0 0 0 5 0 3.446 3.446 0 0 0 4 0.707V60Z" stroke="#ee4d2d" stroke-miterlimit="10" fill="#ee4d2d" data-fill-palette-color="accent"></path><path class="cls-1" d="M20.1 55a1 1 0 0 0 0.965-0.741l2.684-10v-0.007h0L24.6 41H28V39H23.826a1 1 0 0 0-0.968 0.748L22.01 43H4a1 1 0 0 0-0.966 1.259l2.683 10A1 1 0 0 0 6.683 55H8.5v1.184a3 3 0 1 0 2 0V55h6v1.184a3 3 0 1 0 2 0V55ZM9.5 60a1 1 0 1 1 1-1A1 1 0 0 1 9.5 60Zm8 0a1 1 0 1 1 1-1A1 1 0 0 1 17.5 60ZM5.3 45H21.479l-2.146 8H7.45Z" stroke="#ee4d2d" stroke-miterlimit="10" fill="#ee4d2d" data-fill-palette-color="accent"></path><path class="cls-1" d="M55 12H49.941a9 9 0 0 0-17.882 0h-8.11A11 11 0 1 0 7.465 22.49c0.012 0.008 0.021 0.019 0.034 0.027s0.033 0.015 0.049 0.024a10.939 10.939 0 0 0 2.508 1.047c0.082 0.023 0.165 0.043 0.248 0.064q0.522 0.132 1.063 0.213c0.1 0.016 0.2 0.034 0.306 0.047a10.049 10.049 0 0 0 2.654 0c0.1-0.013 0.2-0.031 0.306-0.047q0.542-0.081 1.063-0.213c0.083-0.021 0.166-0.041 0.248-0.064a10.939 10.939 0 0 0 2.508-1.047c0.016-0.009 0.033-0.015 0.049-0.024s0.022-0.019 0.034-0.027A11 11 0 0 0 23.949 14h8.11a9 9 0 0 0 17.882 0H54V25.586l-2.293-2.293-1.414 1.414 4 4a1 1 0 0 0 1.414 0l4-4-1.414-1.414L56 25.586V13A1 1 0 0 0 55 12ZM13 14a3 3 0 1 1 3-3A3 3 0 0 1 13 14Zm-0.856 2h1.712A3.147 3.147 0 0 1 17 19.144V21.05l-0.07 0.034a8.487 8.487 0 0 1-0.846 0.36l-0.072 0.026a9.111 9.111 0 0 1-6.024 0l-0.072-0.026a8.487 8.487 0 0 1-0.846-0.36L9 21.05V19.144A3.147 3.147 0 0 1 12.144 16ZM19 19.689v-0.545a5.126 5.126 0 0 0-2.641-4.466 5 5 0 1 0-6.718 0A5.126 5.126 0 0 0 7 19.144v0.545a9 9 0 1 1 12 0ZM34 13a7 7 0 0 1 6-6.92V8.039a3.207 3.207 0 0 0-2.251 3.037c0 2.258 1.78 2.8 2.958 3.163 1.313 0.4 1.544 0.589 1.544 1.254a1.252 1.252 0 0 1-2.5 0h-2A3.206 3.206 0 0 0 40 18.53v1.39A7 7 0 0 1 34 13Zm8 6.92V18.53a3.206 3.206 0 0 0 2.251-3.037c0-2.262-1.781-2.806-2.96-3.167-1.312-0.4-1.542-0.588-1.542-1.25a1.252 1.252 0 0 1 2.5 0h2A3.207 3.207 0 0 0 42 8.039V6.08a6.991 6.991 0 0 1 0 13.84Z" stroke="#ee4d2d" stroke-miterlimit="10" fill="#ee4d2d" data-fill-palette-color="accent"></path><path class="cls-1" d="M14 41V29.414l2.293 2.293 1.414-1.414-4-4a1 1 0 0 0-1.414 0l-4 4 1.414 1.414L12 29.414V41Z" stroke="#ee4d2d" stroke-miterlimit="10" fill="#ee4d2d" data-fill-palette-color="accent"></path><path class="cls-1" d="M57 42H47a1 1 0 0 0-1 1v7a1 1 0 0 0 1 1H57a1 1 0 0 0 1-1V43A1 1 0 0 0 57 42Zm-1 7H48V44h8Z" stroke="#ee4d2d" stroke-miterlimit="10" fill="#ee4d2d" data-fill-palette-color="accent"></path></svg></g></svg></g></svg></g></svg></g></svg></g><defs></defs></svg><rect width="200" height="100" fill="none" stroke="none" visibility="hidden"></rect></g></svg></g></svg>